<svg xmlns="http://www.w3.org/2000/svg" viewBox="0 0 102 43"><defs><style>.cls-1{fill:#fff;}.cls-2{fill:#53bce6;}</style></defs><path class="cls-1" d="M4.37,42h-3V10.51A25,25,0,0,1,8.8,9.34a13.49,13.49,0,0,1,4.82.82,10.9,10.9,0,0,1,3.71,2.3A10,10,0,0,1,19.69,16a11.72,11.72,0,0,1,.82,4.43,11.46,11.46,0,0,1-1,5,10,10,0,0,1-2.63,3.43,10.52,10.52,0,0,1-3.71,2,14.62,14.62,0,0,1-4.25.63,15.19,15.19,0,0,1-2.3-.17,20.72,20.72,0,0,1-2.26-.48ZM17.09,20.36A8.73,8.73,0,0,0,15,14.26a7.59,7.59,0,0,0-5.92-2.32,18.63,18.63,0,0,0-2.39.15,11.58,11.58,0,0,0-2.3.54V28a20,20,0,0,0,2.15.59,10.13,10.13,0,0,0,2.15.24,8.49,8.49,0,0,0,6.14-2.19A8.3,8.3,0,0,0,17.09,20.36Z"/><path class="cls-1" d="M26.59,31.26V.88h3V31.26Z"/><path class="cls-1" d="M54.46,28.09a10.09,10.09,0,0,1-3.52,2.5,12.31,12.31,0,0,1-4.82.85,10.89,10.89,0,0,1-4.56-.89,9.27,9.27,0,0,1-3.26-2.41,10.25,10.25,0,0,1-2-3.47,13,13,0,0,1-.65-4.12,14.28,14.28,0,0,1,.78-5,9.88,9.88,0,0,1,2.13-3.49A8.49,8.49,0,0,1,41.74,10a10.59,10.59,0,0,1,3.78-.67q4.78,0,7.2,2.93t2.34,8.53H38.79a8.8,8.8,0,0,0,2.13,5.86,7,7,0,0,0,5.43,2.17,9.2,9.2,0,0,0,3.47-.63,7.65,7.65,0,0,0,2.82-2ZM52,18.24a7.55,7.55,0,0,0-.41-2.52,5.72,5.72,0,0,0-1.17-2,5.47,5.47,0,0,0-2-1.32,8.29,8.29,0,0,0-5.66,0,5.11,5.11,0,0,0-1.89,1.28,8.79,8.79,0,0,0-1.28,2,8.08,8.08,0,0,0-.76,2.58Z"/><path class="cls-1" d="M74.95,14.68a7.59,7.59,0,0,0-2.46-2.1,6.83,6.83,0,0,0-3.14-.67,4.94,4.94,0,0,0-3.25.82,2.66,2.66,0,0,0-.93,2.08,2.47,2.47,0,0,0,.43,1.48,3.81,3.81,0,0,0,1.14,1,8.34,8.34,0,0,0,1.64.76q.93.33,1.93.63,1.23.39,2.45.85A9.45,9.45,0,0,1,75,20.75a6,6,0,0,1,1.66,1.8,5.14,5.14,0,0,1,.64,2.67,5.47,5.47,0,0,1-.64,2.65,6,6,0,0,1-1.73,2,7.81,7.81,0,0,1-2.57,1.22,12.64,12.64,0,0,1-7.75-.43,10.89,10.89,0,0,1-3.77-2.8l2.36-2.08a7.42,7.42,0,0,0,6.14,3A5.94,5.94,0,0,0,73,27.87a2.72,2.72,0,0,0,1.18-2.21A3,3,0,0,0,73.74,24a3.82,3.82,0,0,0-1.18-1.15,7.75,7.75,0,0,0-1.73-.8c-.65-.22-1.34-.43-2.07-.63s-1.63-.49-2.43-.78a9,9,0,0,1-2.16-1.11A5.44,5.44,0,0,1,62.6,17.8,5.15,5.15,0,0,1,62,15.15a5.2,5.2,0,0,1,2.09-4.43,8.8,8.8,0,0,1,5.41-1.56,10.68,10.68,0,0,1,4.2.78,9.8,9.8,0,0,1,3.52,2.73l-2.23,2Z"/><path class="cls-1" d="M83,31.26V.92h3V31.26Zm3-11.2L96.47,9.55h4.08L89.87,20,100.5,31.26H96.29Z"/><path class="cls-2" d="M37.16,42H18.88V39.16H37.16Z"/></svg>